<svg width="120" height="120" viewBox="0 0 120 120" fill="none" xmlns="http://www.w3.org/2000/svg">
<path fill-rule="evenodd" clip-rule="evenodd" d="M82.9311 9.56251C81.0598 9.49959 79.1011 9.82583 77.1373 10.4625C73.2097 11.7359 69.0939 14.2173 64.8701 17.6531C63.2148 18.9996 61.5445 20.5388 59.8686 22.1719C58.2296 20.5803 56.5936 19.0824 54.9748 17.7656C50.7544 14.3326 46.6498 11.8502 42.7311 10.5797C38.8123 9.30922 34.9131 9.26986 31.7107 11.1188C28.5083 12.9677 26.5933 16.3617 25.7342 20.3906C24.8751 24.4196 24.9697 29.2176 25.8326 34.5891C26.1323 36.4548 26.5598 38.4122 27.0467 40.4063C25.2168 40.9608 23.4398 41.5439 21.792 42.1875C16.819 44.1299 12.7041 46.4536 9.70762 49.2188C6.71116 51.9839 4.77637 55.3399 4.77637 59.025C4.77637 62.7101 6.71116 66.0614 9.70762 68.8266C12.7041 71.5917 16.819 73.9202 21.792 75.8625C23.554 76.5507 25.4617 77.1704 27.4311 77.7563C26.7227 80.4031 26.1487 82.9715 25.7576 85.4063C24.894 90.7821 24.8028 95.5807 25.6639 99.6188C26.5249 103.657 28.441 107.07 31.6592 108.928C34.8774 110.786 38.794 110.741 42.7217 109.467C46.6493 108.194 50.7604 105.717 54.9842 102.281C56.6242 100.947 58.2832 99.4253 59.9436 97.8094C61.6126 99.435 63.2782 100.964 64.9264 102.305C69.1467 105.738 73.2561 108.215 77.1748 109.486C81.0935 110.756 84.9927 110.796 88.1951 108.947C91.3975 107.098 93.3079 103.704 94.167 99.675C95.0261 95.646 94.9315 90.8527 94.0685 85.4813C93.6764 83.0399 93.1021 80.463 92.3904 77.8078C94.4248 77.2077 96.3928 76.5713 98.2076 75.8625C103.181 73.9202 107.296 71.5917 110.292 68.8266C113.288 66.0614 115.223 62.7101 115.223 59.025C115.223 55.3399 113.288 51.9839 110.292 49.2188C107.296 46.4536 103.181 44.1299 98.2076 42.1875C96.5361 41.5347 94.7318 40.944 92.8732 40.3828C93.3641 38.3765 93.7998 36.4051 94.1014 34.5281C94.965 29.1523 95.0562 24.3491 94.1951 20.311C93.3341 16.2728 91.4133 12.8643 88.1951 11.0063C86.586 10.0772 84.8023 9.62543 82.9311 9.56251ZM82.7107 14.4469C83.885 14.479 84.8867 14.7584 85.7435 15.2531C87.4573 16.2426 88.724 18.1682 89.3998 21.3375C90.0756 24.5068 90.0522 28.7888 89.2545 33.7547C88.9814 35.4549 88.5848 37.2569 88.1342 39.1031C83.225 37.9217 77.8456 37.045 72.1123 36.5297C69.2341 32.5424 66.2768 28.9099 63.2951 25.6875C64.8722 24.148 66.4392 22.7082 67.9686 21.4641C71.8703 18.2903 75.5641 16.1306 78.6467 15.1313C80.188 14.6316 81.5365 14.4148 82.7107 14.4469ZM37.167 14.4609C38.348 14.428 39.6994 14.6442 41.2451 15.1453C44.3366 16.1476 48.0369 18.3062 51.942 21.4828C53.4407 22.7019 54.9725 24.1144 56.517 25.6172C53.5133 28.8659 50.5315 32.5299 47.6342 36.5531C41.9251 37.0778 36.5677 37.9593 31.6826 39.1453C31.2354 37.3093 30.8387 35.5166 30.567 33.825C29.7685 28.8548 29.7486 24.5722 30.4264 21.3938C31.1041 18.2153 32.3812 16.2751 34.1107 15.2766C34.9755 14.7773 35.986 14.4939 37.167 14.4609ZM59.9436 29.1422C61.8986 31.2698 63.8541 33.598 65.7936 36.1031C63.8879 36.0237 61.9589 35.9766 59.9998 35.9766C58.0017 35.9766 56.036 36.0252 54.0936 36.1078C56.0334 33.6007 57.988 31.2714 59.9436 29.1422ZM59.9998 40.8235C63.2635 40.8235 66.4446 40.9576 69.5389 41.1844C71.668 44.2424 73.7486 47.4865 75.7311 50.9203C77.473 53.9375 79.0494 56.95 80.4842 59.925C79.0342 62.9395 77.4314 65.9927 75.6654 69.0516C74.1109 71.7442 72.4875 74.3015 70.8373 76.7672C67.3422 77.0593 63.7205 77.2219 59.9998 77.2219C56.1895 77.2219 52.4865 77.0497 48.9139 76.7438C47.2912 74.3135 45.6952 71.7949 44.1654 69.1453C42.4034 66.0935 40.8084 63.0458 39.3607 60.0375C40.8145 57.0122 42.4167 53.9476 44.1889 50.8781C46.161 47.4624 48.2355 44.2369 50.3529 41.1938C53.4805 40.9618 56.6985 40.8235 59.9998 40.8235ZM75.717 41.7844C79.6733 42.278 83.388 42.9634 86.8451 43.786C85.8193 47.1487 84.5558 50.6612 83.0248 54.286C82.0308 52.3697 81.0012 50.447 79.8889 48.5203C78.5408 46.1854 77.1368 43.9594 75.717 41.7844ZM44.0248 41.8219C42.635 43.9562 41.2674 46.139 39.9467 48.4266C38.82 50.378 37.7691 52.3266 36.7639 54.2672C35.2461 50.6642 33.9902 47.1717 32.9717 43.8281C36.403 43.0041 40.096 42.3212 44.0248 41.8219ZM91.5935 45.061C93.2949 45.5757 94.938 46.1129 96.4451 46.7016C101.029 48.4921 104.656 50.6124 107.006 52.7813C109.356 54.9501 110.376 57.0185 110.376 59.025C110.376 61.0315 109.356 63.0999 107.006 65.2688C104.656 67.4376 101.029 69.5579 96.4451 71.3485C94.7703 72.0026 92.9301 72.5958 91.017 73.1578C89.6523 68.9368 87.9104 64.5331 85.8373 60.0375C88.2209 54.8762 90.1464 49.8439 91.5935 45.061ZM28.3264 45.0844C29.7569 49.8196 31.6577 54.8019 34.0076 59.911C31.9209 64.4327 30.1704 68.8614 28.7998 73.1063C26.9541 72.559 25.1763 71.9819 23.5545 71.3485C18.9701 69.5579 15.3438 67.4376 12.9936 65.2688C10.6433 63.0999 9.62324 61.0315 9.62324 59.025C9.62324 57.0185 10.6433 54.9501 12.9936 52.7813C15.3438 50.6124 18.9701 48.4921 23.5545 46.7016C25.0385 46.122 26.654 45.5924 28.3264 45.0844ZM59.9998 48C53.4008 48 47.9998 53.401 47.9998 60C47.9998 66.599 53.4008 72 59.9998 72C66.5988 72 71.9998 66.599 71.9998 60C71.9998 53.401 66.5988 48 59.9998 48ZM36.8201 65.6766C37.8298 67.6269 38.8799 69.5839 40.0123 71.5453C40.8983 73.0799 41.8032 74.5738 42.7217 76.0406C39.4986 75.5937 36.4348 75.0279 33.5576 74.3578C34.4726 71.5556 35.5672 68.6467 36.8201 65.6766ZM83.0857 65.6766C84.3437 68.6538 85.4389 71.5673 86.3576 74.3766C83.4713 75.0458 80.3981 75.6097 77.1654 76.0547C78.096 74.5699 79.015 73.0574 79.9123 71.5031C81.0364 69.5561 82.0824 67.6126 83.0857 65.6766ZM32.1748 79.0172C36.5184 80.0462 41.2263 80.8366 46.2186 81.3516C49.5511 86.1717 53.0229 90.5028 56.517 94.2891C54.9546 95.8125 53.406 97.2422 51.8904 98.475C47.9887 101.649 44.2902 103.804 41.2076 104.803C38.125 105.803 35.8245 105.671 34.1107 104.681C32.397 103.692 31.135 101.766 30.4592 98.5969C29.7834 95.4276 29.8021 91.1503 30.5998 86.1844C30.9617 83.9316 31.5026 81.5193 32.1748 79.0172ZM87.7451 79.036C88.423 81.5533 88.9654 83.9745 89.3295 86.2406C90.1279 91.2108 90.1479 95.4935 89.4701 98.6719C88.7924 101.85 87.5247 103.795 85.7951 104.794C84.0655 105.792 81.7428 105.923 78.6514 104.92C75.5599 103.918 71.8596 101.759 67.9545 98.5828C66.4281 97.3412 64.8687 95.8998 63.2951 94.3641C66.8126 90.563 70.3089 86.2098 73.6639 81.361C78.6687 80.8494 83.3897 80.0637 87.7451 79.036ZM52.4811 81.8438C54.9453 81.9781 57.442 82.0688 59.9998 82.0688C62.473 82.0688 64.8888 81.9835 67.2748 81.8578C64.8357 85.1486 62.3495 88.1404 59.8732 90.8344C57.3985 88.1346 54.9169 85.1375 52.4811 81.8438Z" fill="url(#paint0_linear_172_530)"/>
<defs>
<linearGradient id="paint0_linear_172_530" x1="4.79981" y1="9.60003" x2="115.2" y2="110.4" gradientUnits="userSpaceOnUse">
<stop stop-color="#D22630"/>
<stop offset="1" stop-color="#FF7040"/>
</linearGradient>
</defs>
</svg>
